<svg width="284" height="284" viewBox="0 0 284 284" fill="none" xmlns="http://www.w3.org/2000/svg">
<rect width="283.5" height="283.5" fill="#2D2D2D"/>
<path d="M66.8 193.6V89.8999H133.3V108.4H87.1V133.3H125.6V151.8H87.1V193.6H66.8Z" fill="#DE5226"/>
<path d="M144.8 193.6V89.8999H183.3C190.6 89.8999 197.1 91.3999 202.7 94.2999C208.3 97.1999 212.7 101.3 215.9 106.4C219.1 111.6 220.6 117.6 220.6 124.4C220.6 131.2 219.1 137.1 216 142.3C212.9 147.5 208.7 151.7 203.4 154.7C198.1 157.7 191.9 159.2 184.9 159.2H165.1V193.6H144.8ZM165.1 140.5H184.5C189 140.5 192.8 139 195.7 136C198.6 133 200.1 129.1 200.1 124.4C200.1 119.7 198.5 115.8 195.3 112.8C192.1 109.8 188 108.4 182.9 108.4H165.1V140.5Z" fill="white"/>
</svg>
