<svg width="24" height="22" viewBox="0 0 24 22" fill="none" xmlns="http://www.w3.org/2000/svg">
<path fill-rule="evenodd" clip-rule="evenodd" d="M5.44834 22V7.1559H0.30411V21.9999H5.44834V22ZM2.87677 5.12994C4.6701 5.12994 5.78721 3.98913 5.78721 2.5647C5.7533 1.1086 4.6701 0 2.91039 0C1.15041 4.50414e-05 0 1.10865 0 2.56474C0 3.98918 1.1165 5.12999 2.8429 5.12999L2.87677 5.12994ZM8.29547 22C8.29547 22 8.36296 8.54867 8.29547 7.15595H13.4405V9.30865H13.4064C14.0829 8.29567 15.3017 6.80737 18.0767 6.80737C21.4623 6.80737 24 8.92895 24 13.4885V22H18.8558V14.0588C18.8558 12.0635 18.1115 10.7019 16.2493 10.7019C14.8284 10.7019 13.9816 11.6198 13.6097 12.5071C13.4736 12.823 13.4405 13.2666 13.4405 13.7102V22H8.29547Z" fill="white"/>
</svg>
