<svg width="30" height="30" viewBox="0 0 30 30" fill="none" xmlns="http://www.w3.org/2000/svg">
<path d="M22.8047 7.78969C22.8047 7.78969 20.3156 7.47656 14.97 7.47656C9.79781 7.47656 7.19438 7.78969 7.19438 7.78969C6.52942 7.78994 5.89179 8.05426 5.42169 8.52454C4.95159 8.99482 4.6875 9.63255 4.6875 10.2975V19.7044C4.68738 20.0337 4.75212 20.3598 4.87804 20.6641C5.00395 20.9685 5.18857 21.245 5.42136 21.4779C5.65414 21.7109 5.93053 21.8957 6.23475 22.0219C6.53896 22.148 6.86504 22.213 7.19438 22.2131C7.19438 22.2131 9.615 22.5244 14.97 22.5244C20.3222 22.5244 22.8047 22.2131 22.8047 22.2131C23.1342 22.2134 23.4605 22.1486 23.7649 22.0226C24.0693 21.8966 24.3459 21.7118 24.5789 21.4788C24.8118 21.2458 24.9965 20.9691 25.1224 20.6647C25.2483 20.3602 25.3129 20.0339 25.3125 19.7044V10.2956C25.3125 9.96638 25.2476 9.64037 25.1216 9.33621C24.9955 9.03205 24.8108 8.75572 24.5779 8.523C24.345 8.29027 24.0685 8.10573 23.7642 7.9799C23.46 7.85408 23.1339 7.78944 22.8047 7.78969ZM12.2447 18.7266V11.2781L18.9328 15L12.2447 18.7266Z" fill="white"/>
</svg>
