<svg width="282" height="47" viewBox="0 0 282 47" fill="none" xmlns="http://www.w3.org/2000/svg">
<path d="M0 46.0002V2.2002H28.1001V10.0002H8.6001V20.5002H24.9V28.3002H8.6001V46.0002H0Z" fill="white"/>
<path d="M38.2001 9.60001C36.9001 9.60001 35.8 9.10001 34.9 8.20001C33.9 7.30001 33.5 6.09999 33.5 4.79999C33.5 3.49999 34 2.39999 34.9 1.39999C35.9 0.499994 37.0001 0 38.2001 0C39.4001 0 40.6001 0.499994 41.6001 1.39999C42.6001 2.29999 43 3.49999 43 4.79999C43 6.09999 42.5001 7.20001 41.6001 8.20001C40.7001 9.20001 39.5001 9.60001 38.2001 9.60001ZM34.1001 46V14.7H42.4V46H34.1001Z" fill="white"/>
<path d="M64.0999 46.6999C60.9999 46.6999 58.2998 45.9999 55.8998 44.5999C53.4998 43.1999 51.6998 41.2999 50.2998 38.7999C48.8998 36.2999 48.2998 33.4999 48.2998 30.2999C48.2998 27.0999 48.9998 24.1999 50.3998 21.7999C51.7998 19.2999 53.6998 17.3999 56.1998 15.9999C58.6998 14.5999 61.4999 13.8999 64.5999 13.8999C67.6999 13.8999 69.8998 14.5999 72.1998 16.0999C74.4998 17.4999 76.3998 19.5999 77.7998 22.3999C79.1998 25.1999 79.8998 28.4999 79.8998 32.4999H56.9998C57.1998 34.5999 58.0998 36.1999 59.6998 37.4999C61.2998 38.6999 63.0999 39.2999 65.0999 39.2999C67.0999 39.2999 68.1998 38.8999 69.2998 38.1999C70.3998 37.4999 71.1998 36.4999 71.7998 35.3999L79.1998 38.2999C78.2998 40.0999 77.1998 41.5999 75.7998 42.7999C74.3998 44.0999 72.6998 44.9999 70.7998 45.6999C68.8998 46.3999 66.6998 46.6999 64.1998 46.6999H64.0999ZM57.3998 26.2999H70.8998C70.7998 24.9999 70.3999 23.9999 69.5999 23.1999C68.8999 22.3999 68.0999 21.7999 67.0999 21.3999C66.0999 20.9999 65.1998 20.7999 64.2998 20.7999C63.3998 20.7999 62.4998 20.9999 61.4998 21.2999C60.4998 21.6999 59.5998 22.1999 58.7998 22.9999C57.9998 23.7999 57.5998 24.8999 57.3998 26.1999V26.2999Z" fill="white"/>
<path d="M84.7002 46.0002V2.2002H93.0001V46.0002H84.7002Z" fill="white"/>
<path d="M112.5 46.7002C109.6 46.7002 107.1 46.0002 105 44.7002C102.9 43.4002 101.3 41.5002 100.1 39.0002C98.8999 36.5002 98.2998 33.6002 98.2998 30.3002C98.2998 27.0002 98.8999 24.0002 100.1 21.6002C101.3 19.2002 102.9 17.3002 105 15.9002C107.1 14.6002 109.6 13.9002 112.5 13.9002C115.4 13.9002 116.4 14.3002 118 15.2002C119.6 16.1002 120.9 17.3002 121.9 18.9002V2.2002H130.2V46.0002H122.4L122.1 41.6002C121.1 43.2002 119.7 44.5002 118.1 45.4002C116.5 46.3002 114.6 46.7002 112.5 46.7002ZM114.7 39.1002C116.1 39.1002 117.3 38.8002 118.4 38.1002C119.5 37.4002 120.3 36.4002 120.9 35.2002C121.5 34.0002 121.9 32.5002 122 30.9002V29.6002C122 28.0002 121.6 26.6002 120.9 25.4002C120.2 24.2002 119.4 23.2002 118.3 22.5002C117.2 21.8002 116 21.5002 114.6 21.5002C113.2 21.5002 111.8 21.9002 110.6 22.6002C109.5 23.3002 108.6 24.4002 107.9 25.7002C107.3 27.0002 106.9 28.6002 106.9 30.3002C106.9 32.0002 107.2 33.5002 107.9 34.9002C108.6 36.2002 109.5 37.3002 110.6 38.0002C111.7 38.8002 113.1 39.1002 114.6 39.1002H114.7Z" fill="white"/>
<path d="M138.5 46.0002V2.2002H154.8C157.9 2.2002 160.6 2.80018 163 4.00018C165.4 5.20018 167.2 6.90019 168.6 9.10019C169.9 11.3002 170.6 13.8002 170.6 16.7002C170.6 19.6002 170 22.1002 168.7 24.3002C167.4 26.5002 165.6 28.3002 163.4 29.5002C161.2 30.7002 158.5 31.4002 155.6 31.4002H147.2V45.9002H138.6L138.5 46.0002ZM147.1 23.5002H155.3C157.2 23.5002 158.8 22.9002 160 21.6002C161.2 20.3002 161.8 18.7002 161.8 16.7002C161.8 14.7002 161.1 13.1002 159.8 11.8002C158.4 10.5002 156.7 9.90018 154.6 9.90018H147.1V23.5002Z" fill="white"/>
<path d="M184.6 46.7001C180.8 46.7001 177.9 45.9001 175.9 44.2001C173.8 42.5001 172.8 40.2001 172.8 37.1001C172.8 34.0001 173.9 31.2001 176.2 29.6001C178.4 27.9001 181.6 27.1001 185.6 27.1001H193C192.7 25.2001 192.1 23.7001 191.2 22.7001C190.3 21.7001 189 21.2001 187.3 21.2001C185.6 21.2001 184.8 21.5001 183.7 22.1001C182.6 22.7001 181.7 23.6001 180.9 24.8001L173.6 22.3001C174.2 21.0001 175 19.7001 176.2 18.4001C177.4 17.1001 178.8 16.1001 180.6 15.3001C182.4 14.5001 184.6 14.1001 187.3 14.1001C190 14.1001 193.1 14.7001 195.2 15.9001C197.3 17.1001 198.9 18.8001 199.9 21.0001C200.9 23.2001 201.4 25.8001 201.4 28.8001L201.2 46.1001H193.5V42.5001C192.6 43.9001 191.5 45.0001 190 45.8001C188.6 46.6001 186.8 46.9001 184.7 46.9001L184.6 46.7001ZM186 39.8001C187.3 39.8001 188.5 39.5001 189.6 38.9001C190.7 38.3001 191.5 37.5001 192.2 36.5001C192.8 35.5001 193.1 34.5001 193.1 33.4001C193.1 33.3001 188.4 33.3001 188.4 33.3001C185.7 33.3001 183.8 33.6001 182.8 34.3001C181.8 34.9001 181.2 35.9001 181.2 37.0001C181.2 38.1001 181.6 38.6001 182.5 39.2001C183.3 39.7001 184.5 40.0001 186 40.0001V39.8001Z" fill="white"/>
<path d="M207.9 46.0002V2.2002H216.2V46.0002H207.9Z" fill="white"/>
<path d="M227.5 46.8998C226.1 46.8998 224.9 46.3998 224 45.3998C223 44.3998 222.5 43.1998 222.5 41.7998C222.5 40.3998 223 39.2998 224 38.2998C225 37.2998 226.2 36.7998 227.5 36.7998C228.8 36.7998 230.1 37.2998 231 38.2998C232 39.2998 232.5 40.4998 232.5 41.7998C232.5 43.0998 232 44.3998 231 45.3998C230 46.3998 228.8 46.8998 227.5 46.8998Z" fill="#DE5226"/>
<path d="M249 46.7001C245.2 46.7001 242.3 45.9001 240.3 44.2001C238.2 42.5001 237.2 40.2001 237.2 37.1001C237.2 34.0001 238.3 31.2001 240.6 29.6001C242.8 27.9001 246 27.1001 250 27.1001H257.4C257.1 25.2001 256.5 23.7001 255.6 22.7001C254.7 21.7001 253.4 21.2001 251.7 21.2001C250 21.2001 249.2 21.5001 248.1 22.1001C247 22.7001 246.1 23.6001 245.3 24.8001L238 22.3001C238.6 21.0001 239.4 19.7001 240.6 18.4001C241.8 17.1001 243.2 16.1001 245 15.3001C246.8 14.5001 249 14.1001 251.7 14.1001C254.4 14.1001 257.5 14.7001 259.6 15.9001C261.7 17.1001 263.3 18.8001 264.3 21.0001C265.3 23.2001 265.8 25.8001 265.8 28.8001L265.6 46.1001H257.9V42.5001C257 43.9001 255.9 45.0001 254.4 45.8001C253 46.6001 251.2 46.9001 249.1 46.9001L249 46.7001ZM250.3 39.8001C251.6 39.8001 252.8 39.5001 253.9 38.9001C255 38.3001 255.8 37.5001 256.5 36.5001C257.1 35.5001 257.4 34.5001 257.4 33.4001C257.4 33.3001 252.7 33.3001 252.7 33.3001C250 33.3001 248.1 33.6001 247.1 34.3001C246.1 34.9001 245.5 35.9001 245.5 37.0001C245.5 38.1001 245.9 38.6001 246.8 39.2001C247.6 39.7001 248.8 40.0001 250.3 40.0001V39.8001Z" fill="#DE5226"/>
<path d="M276.8 9.60001C275.5 9.60001 274.4 9.10001 273.5 8.20001C272.5 7.30001 272.1 6.09999 272.1 4.79999C272.1 3.49999 272.6 2.39999 273.5 1.39999C274.5 0.499994 275.6 0 276.8 0C278 0 279.2 0.499994 280.2 1.39999C281.2 2.29999 281.6 3.49999 281.6 4.79999C281.6 6.09999 281.1 7.20001 280.2 8.20001C279.3 9.20001 278.1 9.60001 276.8 9.60001ZM272.7 46V14.7H281V46H272.7Z" fill="#DE5226"/>
</svg>
