<svg width="976" height="635" viewBox="0 0 976 635" fill="none" xmlns="http://www.w3.org/2000/svg">
<g clip-path="url(#clip0_1742_22668)">
<path d="M0 30.5C0 13.6553 13.6553 0 30.5 0H945.5C962.345 0 976 13.6553 976 30.5V604.5C976 621.345 962.345 635 945.5 635H30.5C13.6553 635 0 621.345 0 604.5V30.5Z" fill="white"/>
<path d="M854.455 536.149H934.757V770.125H684.725L854.455 536.149Z" fill="#E04F00"/>
<path d="M992.246 394.212H1157.41H1166.54V760.376C1166.54 765.76 1166.4 770.125 1161.36 770.125H728.526L992.246 394.212Z" fill="#2D2D2D"/>
<path d="M101.412 42.7002H135.343L13.3434 216.931H-24.4004L101.412 42.7002Z" fill="#E04F00"/>
<path d="M198.25 -44.2251H232.181L110.181 130.006H72.4375L198.25 -44.2251Z" fill="#E6E3E1"/>
<g clip-path="url(#clip1_1742_22668)">
<path d="M380.259 334.075V300.678H401.685V306.625H386.816V314.631H399.245V320.579H386.816V334.075H380.259Z" fill="#2D2D2D"/>
<path d="M409.309 306.32C408.318 306.32 407.479 305.939 406.793 305.253C406.031 304.566 405.726 303.651 405.726 302.66C405.726 301.669 406.107 300.83 406.793 300.067C407.556 299.381 408.394 299 409.309 299C410.224 299 411.139 299.381 411.902 300.067C412.664 300.754 412.969 301.669 412.969 302.66C412.969 303.651 412.588 304.49 411.902 305.253C411.216 306.015 410.301 306.32 409.309 306.32ZM406.183 334.075V310.209H412.512V334.075H406.183Z" fill="#2D2D2D"/>
<path d="M429.134 334.609C426.771 334.609 424.712 334.075 422.882 333.007C421.052 331.94 419.679 330.491 418.612 328.585C417.544 326.679 417.087 324.544 417.087 322.104C417.087 319.664 417.621 317.452 418.688 315.622C419.756 313.716 421.204 312.267 423.111 311.2C425.017 310.132 427.152 309.599 429.516 309.599C431.879 309.599 433.557 310.132 435.311 311.276C437.064 312.344 438.513 313.945 439.581 316.08C440.648 318.215 441.182 320.731 441.182 323.781H423.721C423.873 325.382 424.559 326.602 425.779 327.594C426.999 328.509 428.372 328.966 429.897 328.966C431.422 328.966 432.261 328.661 433.099 328.127C433.938 327.594 434.548 326.831 435.006 325.992L440.648 328.204C439.962 329.576 439.123 330.72 438.056 331.635C436.988 332.626 435.692 333.312 434.243 333.846C432.794 334.38 431.117 334.609 429.211 334.609H429.134ZM423.949 319.054H434.243C434.167 318.062 433.862 317.3 433.252 316.69C432.718 316.08 432.108 315.622 431.346 315.317C430.583 315.012 429.897 314.86 429.211 314.86C428.524 314.86 427.838 315.012 427.076 315.241C426.313 315.546 425.627 315.927 425.017 316.537C424.407 317.147 424.102 317.986 423.949 318.977V319.054Z" fill="#2D2D2D"/>
<path d="M444.766 334.075V300.678H451.094V334.075H444.766Z" fill="#2D2D2D"/>
<path d="M466.039 334.609C463.828 334.609 461.922 334.075 460.321 333.084C458.719 332.093 457.499 330.644 456.584 328.738C455.669 326.831 455.212 324.62 455.212 322.104C455.212 319.588 455.669 317.3 456.584 315.47C457.499 313.64 458.719 312.191 460.321 311.124C461.922 310.133 463.828 309.599 466.039 309.599C468.251 309.599 469.013 309.904 470.233 310.59C471.453 311.276 472.444 312.191 473.207 313.411V300.678H479.536V334.075H473.588L473.359 330.72C472.597 331.94 471.529 332.931 470.309 333.618C469.089 334.304 467.641 334.609 466.039 334.609ZM467.641 328.814C468.708 328.814 469.623 328.585 470.462 328.051C471.301 327.518 471.911 326.755 472.368 325.84C472.826 324.925 473.131 323.781 473.207 322.561V321.57C473.207 320.35 472.902 319.283 472.368 318.368C471.834 317.453 471.224 316.69 470.386 316.156C469.547 315.623 468.632 315.394 467.564 315.394C466.497 315.394 465.429 315.699 464.514 316.233C463.676 316.766 462.989 317.605 462.456 318.596C461.998 319.588 461.693 320.808 461.693 322.104C461.693 323.4 461.922 324.544 462.456 325.611C462.989 326.603 463.676 327.441 464.514 327.975C465.353 328.585 466.421 328.814 467.564 328.814H467.641Z" fill="#2D2D2D"/>
<path d="M485.864 334.075V300.678H498.293C500.657 300.678 502.716 301.135 504.546 302.05C506.376 302.965 507.748 304.261 508.815 305.939C509.807 307.616 510.34 309.523 510.34 311.734C510.34 313.945 509.883 315.851 508.892 317.529C507.9 319.206 506.528 320.579 504.851 321.494C503.173 322.409 501.114 322.943 498.903 322.943H492.498V333.999H485.94L485.864 334.075ZM492.422 316.919H498.674C500.123 316.919 501.343 316.461 502.258 315.47C503.173 314.479 503.63 313.259 503.63 311.734C503.63 310.209 503.097 308.989 502.105 307.998C501.038 307.006 499.742 306.549 498.14 306.549H492.422V316.919Z" fill="#2D2D2D"/>
<path d="M521.016 334.609C518.119 334.609 515.907 333.999 514.382 332.703C512.781 331.406 512.019 329.653 512.019 327.289C512.019 324.925 512.857 322.79 514.611 321.57C516.289 320.274 518.729 319.664 521.779 319.664H527.421C527.192 318.215 526.735 317.071 526.049 316.309C525.362 315.546 524.371 315.165 523.075 315.165C521.779 315.165 521.169 315.394 520.33 315.851C519.491 316.309 518.805 316.995 518.195 317.91L512.629 316.004C513.086 315.013 513.696 314.021 514.611 313.03C515.526 312.039 516.594 311.276 517.966 310.666C519.339 310.056 521.016 309.751 523.075 309.751C525.134 309.751 527.497 310.209 529.099 311.124C530.7 312.039 531.92 313.335 532.682 315.013C533.445 316.69 533.826 318.673 533.826 320.96L533.674 334.151H527.802V331.406C527.116 332.474 526.277 333.313 525.134 333.923C524.066 334.533 522.694 334.761 521.092 334.761L521.016 334.609ZM522.084 329.348C523.075 329.348 523.99 329.119 524.829 328.661C525.667 328.204 526.277 327.594 526.811 326.831C527.269 326.069 527.497 325.306 527.497 324.468C527.497 324.391 523.914 324.391 523.914 324.391C521.855 324.391 520.406 324.62 519.644 325.154C518.881 325.611 518.424 326.374 518.424 327.213C518.424 328.051 518.729 328.433 519.415 328.89C520.025 329.271 520.94 329.5 522.084 329.5V329.348Z" fill="#2D2D2D"/>
<path d="M538.706 334.075V300.678H545.035V334.075H538.706Z" fill="#2D2D2D"/>
<path d="M553.65 334.761C552.583 334.761 551.668 334.38 550.982 333.618C550.219 332.855 549.838 331.94 549.838 330.873C549.838 329.805 550.219 328.966 550.982 328.204C551.744 327.441 552.659 327.06 553.65 327.06C554.642 327.06 555.633 327.441 556.319 328.204C557.082 328.966 557.463 329.881 557.463 330.873C557.463 331.864 557.082 332.855 556.319 333.618C555.557 334.38 554.642 334.761 553.65 334.761Z" fill="#DE5226"/>
<path d="M570.044 334.609C567.147 334.609 564.936 333.999 563.411 332.703C561.809 331.406 561.047 329.653 561.047 327.289C561.047 324.925 561.886 322.79 563.639 321.57C565.317 320.274 567.757 319.664 570.807 319.664H576.449C576.221 318.215 575.763 317.071 575.077 316.309C574.391 315.546 573.399 315.165 572.103 315.165C570.807 315.165 570.197 315.394 569.358 315.851C568.519 316.309 567.833 316.995 567.223 317.91L561.657 316.004C562.114 315.013 562.724 314.021 563.639 313.03C564.554 312.039 565.622 311.276 566.994 310.666C568.367 310.056 570.044 309.751 572.103 309.751C574.162 309.751 576.526 310.209 578.127 311.124C579.728 312.039 580.948 313.335 581.711 315.013C582.473 316.69 582.854 318.673 582.854 320.96L582.702 334.151H576.831V331.406C576.144 332.474 575.306 333.313 574.162 333.923C573.094 334.533 571.722 334.761 570.121 334.761L570.044 334.609ZM571.112 329.348C572.103 329.348 573.018 329.119 573.857 328.661C574.696 328.204 575.306 327.594 575.839 326.831C576.297 326.069 576.526 325.306 576.526 324.468C576.526 324.391 572.942 324.391 572.942 324.391C570.883 324.391 569.434 324.62 568.672 325.154C567.909 325.611 567.452 326.374 567.452 327.213C567.452 328.051 567.757 328.433 568.443 328.89C569.053 329.271 569.968 329.5 571.112 329.5V329.348Z" fill="#DE5226"/>
<path d="M591.318 306.32C590.327 306.32 589.488 305.939 588.802 305.253C588.039 304.566 587.734 303.651 587.734 302.66C587.734 301.669 588.116 300.83 588.802 300.067C589.564 299.381 590.403 299 591.318 299C592.233 299 593.148 299.381 593.911 300.067C594.673 300.754 594.978 301.669 594.978 302.66C594.978 303.651 594.597 304.49 593.911 305.253C593.224 306.015 592.309 306.32 591.318 306.32ZM588.116 334.075V310.209H594.444V334.075H588.116Z" fill="#DE5226"/>
</g>
<rect x="456" y="380" width="64" height="64" rx="32" fill="#E04F00"/>
<path d="M482.183 422.182V401.818L498.183 412L482.183 422.182Z" fill="white"/>
</g>
<path d="M30.5 0.5H945.5C962.069 0.5 975.5 13.9315 975.5 30.5V604.5C975.5 621.069 962.069 634.5 945.5 634.5H30.5C13.9315 634.5 0.5 621.069 0.5 604.5V30.5C0.500004 13.9315 13.9315 0.5 30.5 0.5Z" stroke="#D4D0CD"/>
<defs>
<clipPath id="clip0_1742_22668">
<path d="M0 30.5C0 13.6553 13.6553 0 30.5 0H945.5C962.345 0 976 13.6553 976 30.5V604.5C976 621.345 962.345 635 945.5 635H30.5C13.6553 635 0 621.345 0 604.5V30.5Z" fill="white"/>
</clipPath>
<clipPath id="clip1_1742_22668">
<rect width="215.787" height="35.8375" fill="white" transform="translate(379.725 299)"/>
</clipPath>
</defs>
</svg>
