<?xml version="1.0" encoding="UTF-8"?>
<svg id="Isolation_Mode" xmlns="http://www.w3.org/2000/svg" version="1.1" viewBox="0 0 566.9 566.9">
  <!-- Generator: Adobe Illustrator 29.8.1, SVG Export Plug-In . SVG Version: 2.1.1 Build 2)  -->
  <defs>
    <style>
      .st0 {
        fill: #2d2d2d;
      }

      .st1 {
        fill: #de5226;
      }
    </style>
  </defs>
  <path class="st0" d="M142.7,306v-43.8h28.1v7.8h-19.5v10.5h16.3v7.8h-16.3v17.7h-8.6Z"/>
  <path class="st0" d="M180.8,269.6c-1.3,0-2.4-.5-3.3-1.4-1-.9-1.4-2.1-1.4-3.4s.5-2.4,1.4-3.4c1-.9,2.1-1.4,3.3-1.4s2.4.5,3.4,1.4,1.4,2.1,1.4,3.4-.5,2.4-1.4,3.4-2.1,1.4-3.4,1.4ZM176.7,306v-31.3h8.3v31.3h-8.3Z"/>
  <path class="st0" d="M206.8,306.7c-3.1,0-5.8-.7-8.2-2.1-2.4-1.4-4.2-3.3-5.6-5.8-1.4-2.5-2-5.3-2-8.5s.7-6.1,2.1-8.5c1.4-2.5,3.3-4.4,5.8-5.8s5.3-2.1,8.4-2.1,5.3.7,7.6,2.2c2.3,1.4,4.2,3.5,5.6,6.3,1.4,2.8,2.1,6.1,2.1,10.1h-22.9c.2,2.1,1.1,3.7,2.7,5,1.6,1.2,3.4,1.8,5.4,1.8s3.1-.4,4.2-1.1c1.1-.7,1.9-1.7,2.5-2.8l7.4,2.9c-.9,1.8-2,3.3-3.4,4.5-1.4,1.3-3.1,2.2-5,2.9-1.9.7-4.1,1-6.6,1ZM200,286.3h13.5c-.1-1.3-.5-2.3-1.3-3.1-.7-.8-1.5-1.4-2.5-1.8-1-.4-1.9-.6-2.8-.6s-1.8.2-2.8.5c-1,.4-1.9.9-2.7,1.7-.8.8-1.2,1.9-1.4,3.2Z"/>
  <path class="st0" d="M227.3,306v-43.8h8.3v43.8h-8.3Z"/>
  <path class="st0" d="M255.2,306.7c-2.9,0-5.4-.7-7.5-2-2.1-1.3-3.7-3.2-4.9-5.7-1.2-2.5-1.8-5.4-1.8-8.7s.6-6.3,1.8-8.7c1.2-2.4,2.8-4.3,4.9-5.7,2.1-1.3,4.6-2,7.5-2s3.9.4,5.5,1.3c1.6.9,2.9,2.1,3.9,3.7v-16.7h8.3v43.8h-7.8l-.3-4.4c-1,1.6-2.4,2.9-4,3.8s-3.5,1.3-5.6,1.3ZM257.3,299.1c1.4,0,2.6-.3,3.7-1,1.1-.7,1.9-1.7,2.5-2.9s1-2.7,1.1-4.3v-1.3c0-1.6-.4-3-1.1-4.2s-1.5-2.2-2.6-2.9c-1.1-.7-2.3-1-3.7-1s-2.8.4-4,1.1c-1.1.7-2,1.8-2.7,3.1-.6,1.3-1,2.9-1,4.6s.3,3.2,1,4.6c.7,1.3,1.6,2.4,2.7,3.1,1.1.8,2.5,1.1,4,1.1Z"/>
  <path class="st0" d="M281.2,306v-43.8h16.3c3.1,0,5.8.6,8.2,1.8,2.4,1.2,4.2,2.9,5.6,5.1,1.3,2.2,2,4.7,2,7.6s-.6,5.4-1.9,7.6c-1.3,2.2-3.1,4-5.3,5.2s-4.9,1.9-7.8,1.9h-8.4v14.5h-8.6ZM289.8,283.5h8.2c1.9,0,3.5-.6,4.7-1.9,1.2-1.3,1.8-2.9,1.8-4.9s-.7-3.6-2-4.9c-1.4-1.3-3.1-1.9-5.2-1.9h-7.5v13.6Z"/>
  <path class="st0" d="M327.3,306.7c-3.8,0-6.7-.8-8.7-2.5-2.1-1.7-3.1-4-3.1-7.1s1.1-5.9,3.4-7.5c2.2-1.7,5.4-2.5,9.4-2.5h7.4c-.3-1.9-.9-3.4-1.8-4.4-.9-1-2.2-1.5-3.9-1.5s-2.5.3-3.6.9c-1.1.6-2,1.5-2.8,2.7l-7.3-2.5c.6-1.3,1.4-2.6,2.6-3.9s2.6-2.3,4.4-3.1c1.8-.8,4-1.2,6.7-1.2s5.8.6,7.9,1.8c2.1,1.2,3.7,2.9,4.7,5.1,1,2.2,1.5,4.8,1.5,7.8l-.2,17.3h-7.7v-3.6c-.9,1.4-2,2.5-3.5,3.3-1.4.8-3.2,1.1-5.3,1.1ZM328.7,299.8c1.3,0,2.5-.3,3.6-.9,1.1-.6,1.9-1.4,2.6-2.4.6-1,.9-2,.9-3.1h0c0-.1-4.7-.1-4.7-.1-2.7,0-4.6.3-5.6,1-1,.6-1.6,1.6-1.6,2.7s.4,1.6,1.3,2.2c.8.5,2,.8,3.5.8Z"/>
  <path class="st0" d="M350.5,306v-43.8h8.3v43.8h-8.3Z"/>
  <path class="st1" d="M370.1,306.9c-1.4,0-2.6-.5-3.5-1.5-1-1-1.5-2.2-1.5-3.6s.5-2.5,1.5-3.5c1-1,2.2-1.5,3.5-1.5s2.6.5,3.5,1.5c1,1,1.5,2.2,1.5,3.5s-.5,2.6-1.5,3.6c-1,1-2.2,1.5-3.5,1.5Z"/>
  <path class="st1" d="M391.6,306.7c-3.8,0-6.7-.8-8.7-2.5-2.1-1.7-3.1-4-3.1-7.1s1.1-5.9,3.4-7.5c2.2-1.7,5.4-2.5,9.4-2.5h7.4c-.3-1.9-.9-3.4-1.8-4.4-.9-1-2.2-1.5-3.9-1.5s-2.5.3-3.6.9c-1.1.6-2,1.5-2.8,2.7l-7.3-2.5c.6-1.3,1.4-2.6,2.6-3.9s2.6-2.3,4.4-3.1c1.8-.8,4-1.2,6.7-1.2s5.8.6,7.9,1.8c2.1,1.2,3.7,2.9,4.7,5.1,1,2.2,1.5,4.8,1.5,7.8l-.2,17.3h-7.7v-3.6c-.9,1.4-2,2.5-3.5,3.3-1.4.8-3.2,1.1-5.3,1.1ZM393,299.8c1.3,0,2.5-.3,3.6-.9,1.1-.6,1.9-1.4,2.6-2.4.6-1,.9-2,.9-3.1h0c0-.1-4.7-.1-4.7-.1-2.7,0-4.6.3-5.6,1-1,.6-1.6,1.6-1.6,2.7s.4,1.6,1.3,2.2c.8.5,2,.8,3.5.8Z"/>
  <path class="st1" d="M419.5,269.6c-1.3,0-2.4-.5-3.3-1.4-1-.9-1.4-2.1-1.4-3.4s.5-2.4,1.4-3.4c1-.9,2.1-1.4,3.3-1.4s2.4.5,3.4,1.4,1.4,2.1,1.4,3.4-.5,2.4-1.4,3.4-2.1,1.4-3.4,1.4ZM415.3,306v-31.3h8.3v31.3h-8.3Z"/>
</svg>